<svg width="252" height="40" fill="none" xmlns="http://www.w3.org/2000/svg"><path d="M0 4.5586v29.5297h5.163V8.5525h9.2167v25.5358h5.163V4.5586H0ZM22.0866 29.7119v4.3764s.8107.4249 2.0054.4249c4.3523 0 5.4618-3.0592 5.7178-10.1548l.2987-7.648h5.163v17.3779h5.0777V12.7164H25.7988l-.4267 11.4295c-.1707 4.5463-.4693 5.9484-2.1335 5.9484-.7253 0-1.152-.3824-1.152-.3824ZM61.7387 12.2915c-4.8644 0-8.4059 3.1442-9.1313 8.8802h-2.9016v-8.4553h-5.0776v21.3719h5.0776v-8.9227h2.8589c.5547 6.0334 4.1816 9.3476 9.174 9.3476 5.4617 0 9.2593-3.9515 9.2593-11.1321 0-7.1381-3.7976-11.0896-9.2593-11.0896Zm0 18.2277c-2.6882 0-4.011-2.1669-4.011-7.0956 0-4.9712 1.3228-7.1381 4.011-7.1381s4.0109 2.1669 4.0109 7.0956c0 4.9712-1.3227 7.1381-4.0109 7.1381ZM83.6386 34.5132c2.3468 0 4.0109-.4249 5.2483-1.3172v-4.1214c-1.2801.8923-2.8162 1.4446-4.9497 1.4446-3.6269 0-5.1203-2.8042-5.1203-7.2231 0-4.6312 1.8348-7.0106 5.163-7.0106 1.9628 0 3.883.6798 4.907 1.3171v-4.2913c-1.0667-.5949-2.9442-1.0198-5.4617-1.0198-6.4858 0-9.8567 4.6313-9.8567 11.1321 0 7.1381 3.2856 11.0896 10.0701 11.0896Z" fill="#fff"/><rect x="97.3521" y="39.0723" width="39.0712" height="39.0712" rx="19.5356" transform="rotate(-90 97.3521 39.0723)" fill="url(#b)"/><rect x="97.3521" y="39.0723" width="39.0712" height="39.0712" rx="19.5356" transform="rotate(-90 97.3521 39.0723)" fill="#7F43F0"/><g clip-path="url(#a)"><rect x="97.3521" y="39.0723" width="39.0712" height="39.0712" rx="19.5356" transform="rotate(-90 97.3521 39.0723)" fill="url(#d)"/><path fill-rule="evenodd" clip-rule="evenodd" d="M113.813 11.7744c-.489-1.4615-1.03-1.7235-1.373-1.7724-.473-.0674-1.087.0928-1.838 1.1268-.764 1.0536-1.409 2.7213-1.761 4.7374-.348 1.9907-.381 4.1545-.058 6.0962.326 1.9703.985 3.5212 1.851 4.4832l-1.574 3.5319c-2.887 0-4.748 1.678-5.347 3.786-.6 2.1148.009 4.9782 2.909 7.3069l1.651 1.3249-2.65 3.3006-1.651-1.3249c-4.0909-3.2848-5.4403-7.8511-4.3306-11.7627.8256-2.9104 2.9776-5.2838 5.9936-6.3123-.49-1.1558-.822-2.3985-1.028-3.6408-.407-2.4498-.359-5.0957.064-7.5176.419-2.3965 1.236-4.7444 2.505-6.4943 1.284-1.7694 3.275-3.2004 5.862-2.8316 2.717.3873 4.106 2.5798 4.789 4.619.688 2.0566.899 4.5761.916 6.9404.861-1.3392 1.849-2.6292 2.948-3.6099 1.403-1.2515 3.398-2.3378 5.695-1.6581 2.21.6538 3.373 2.4637 3.822 4.3345.439 1.8294.28 3.9389-.238 5.9344-.69 2.6539-2.142 5.5448-4.287 7.6803 2.197 1.6704 3.419 4.3662 3.537 7.0679.182 4.1937-2.198 8.6529-7.519 10.5968l-1.988.7263-1.452-3.9757 1.987-.7262c3.544-1.2947 4.847-4.0399 4.743-6.4376-.109-2.508-1.662-4.4162-3.897-4.6671l-.597-4.0489c2.461-1.0532 4.543-4.0729 5.376-7.2801.407-1.5659.446-2.9356.219-3.8823-.217-.9053-.585-1.1684-.907-1.2635-.234-.0692-.731-.0852-1.676.7578-.927.8266-1.895 2.1604-2.834 3.7686-.923 1.5798-1.741 3.2908-2.405 4.769-.261.5798-.514 1.1631-.742 1.6876-.312.718-.576 1.3259-.745 1.664l-4.009-.9962c.009-.372.074-.9766.141-1.595.012-.1087.025-.2212.037-.3375.067-.6031.144-1.3068.22-2.0899.182-1.8705.353-4.1356.339-6.3399-.014-2.242-.22-4.2472-.698-5.676Z" fill="#fff"/></g><path d="M149.884 40.0001v-6.1374h14.983v6.1374h4.783V29.8839h-2.751V4.4453H149.63l-.424 12.1056c-.211 6.9839-.762 11.0897-2.116 13.333h-1.989v10.1162h4.783Zm4.148-22.772.296-8.804h7.449v21.4598h-9.523c.889-2.0317 1.566-5.6718 1.778-12.6558Z" fill="url(#e)"/><path d="M188.929 32.4235v-4.1057c-1.566 1.0582-4.19 1.9894-6.645 1.9894-3.683 0-5.08-1.7354-5.291-5.2909h12.148v-2.6666c0-7.4073-3.26-10.2009-8.296-10.2009-6.138 0-9.058 4.6984-9.058 11.1321 0 7.4072 3.64 11.005 10.073 11.005 3.217 0 5.588-.8465 7.069-1.8624Zm-8.169-16.2959c2.497 0 3.259 2.074 3.259 4.7406v.4233h-7.026c.127-3.3862 1.354-5.1639 3.767-5.1639Z" fill="url(#f)"/><path d="M207.059 16.5509v-3.9788h-16.888v3.9788h5.925v17.3118h5.037V16.5509h5.926Z" fill="url(#g)"/><path d="M207.94 33.8627h5.164l4.063-6.9417h2.413v6.9417h5.037V12.5721h-7.704c-4.91 0-8.423 2.4973-8.423 7.0686 0 3.2169 1.524 5.2486 4.233 6.1798l-4.783 8.0422Zm9.354-17.3118h2.286v6.6876h-2.413c-2.286 0-3.555-.9735-3.555-3.4284 0-2.328 1.481-3.2592 3.682-3.2592Z" fill="url(#h)"/><path d="M247.007 33.8627h4.91l-.085-21.2906h-6.899l-4.614 14.1796-4.148-14.1796h-7.322v21.2906h4.275v-15.915l4.613 15.915h4.106l5.164-15.915v15.915Z" fill="url(#i)"/><defs><linearGradient id="b" x1="97.3521" y1="56.0031" x2="136.423" y2="56.0031" gradientUnits="userSpaceOnUse"><stop stop-color="#FF5C4D"/><stop offset=".4" stop-color="#EB469F"/><stop offset="1" stop-color="#8341EF"/></linearGradient><linearGradient id="d" x1="115.097" y1="39.0723" x2="115.422" y2="78.1434" gradientUnits="userSpaceOnUse"><stop stop-color="#FF5C4D"/><stop offset=".4" stop-color="#EB469F"/><stop offset="1" stop-color="#8341EF"/></linearGradient><linearGradient id="e" x1="145.101" y1="19.8524" x2="251.917" y2="19.8524" gradientUnits="userSpaceOnUse"><stop stop-color="#8341EF"/><stop offset="1" stop-color="#3F68F9"/></linearGradient><linearGradient id="f" x1="145.101" y1="19.8524" x2="251.917" y2="19.8524" gradientUnits="userSpaceOnUse"><stop stop-color="#8341EF"/><stop offset="1" stop-color="#3F68F9"/></linearGradient><linearGradient id="g" x1="145.101" y1="19.8524" x2="251.917" y2="19.8524" gradientUnits="userSpaceOnUse"><stop stop-color="#8341EF"/><stop offset="1" stop-color="#3F68F9"/></linearGradient><linearGradient id="h" x1="145.101" y1="19.8524" x2="251.917" y2="19.8524" gradientUnits="userSpaceOnUse"><stop stop-color="#8341EF"/><stop offset="1" stop-color="#3F68F9"/></linearGradient><linearGradient id="i" x1="145.101" y1="19.8524" x2="251.917" y2="19.8524" gradientUnits="userSpaceOnUse"><stop stop-color="#8341EF"/><stop offset="1" stop-color="#3F68F9"/></linearGradient><clipPath id="a"><rect x="97.3521" y="39.0723" width="39.0712" height="39.0712" rx="19.5356" transform="rotate(-90 97.3521 39.0723)" fill="#fff"/></clipPath></defs></svg>
