<svg width="72" height="72" fill="none" xmlns="http://www.w3.org/2000/svg"><mask id="a" style="mask-type:alpha" maskUnits="userSpaceOnUse" x="0" y="0" width="72" height="72"><path fill-rule="evenodd" clip-rule="evenodd" d="M3.068 10.2675C0 15.3425 0 22.2284 0 36c0 13.7716 0 20.6574 3.068 25.7324a21.2711 21.2711 0 0 0 7.1995 7.1996C15.3425 72 22.2284 72 36 72c13.7716 0 20.6574 0 25.7324-3.068a21.2689 21.2689 0 0 0 7.1996-7.1996C72 56.6574 72 49.7716 72 36c0-13.7716 0-20.6575-3.068-25.7325a21.2711 21.2711 0 0 0-7.1996-7.1996C56.6574 0 49.7716 0 36 0 22.2284 0 15.3425 0 10.2675 3.068a21.2734 21.2734 0 0 0-7.1996 7.1995Z" fill="#fff"/></mask><g mask="url(#a)"><path fill="#000" d="M0 0h72v72H0z"/><path d="m63.9797 29.5797-.1548-1.1417-9.3531-2.1835 4.8314-7.1696-.5709-.7773-7.534 3.6865.8321-10.0272-.8321-.4128-4.6766 8.0501L41.0163 7.5h-1.0385l1.3481 11.8462L27.5575 8.3837l-1.1933.3129 10.598 13.2975-21.0412-7.0116-.9869 1.0901 18.8061 10.6496-25.8725 2.1835-.2613 1.5577 26.9143 2.9092L12.025 51.7659l1.0385 1.4029L39.7166 38.62l-5.2475 25.5113h1.6094l10.2884-24.0019 6.2343 18.7545 1.0901-.8321-2.3382-18.8062 9.5079 10.7529.574-1.0902-7.0664-13.3007 10.0272 3.5348.1032-1.0933-8.363-6.702 7.8437-1.7674Z" fill="#FED42B"/></g></svg>
